<svg width="7" height="5" viewBox="0 0 7 5" fill="none" xmlns="http://www.w3.org/2000/svg">
  <path d="M3.81697 0.683823L6.36777 3.24957C6.54408 3.42691 6.54408 3.71367 6.36777 3.88912L5.94389 4.31548C5.76758 4.49282 5.48249 4.49282 5.30806 4.31548L3.5 2.49682L1.69194 4.31548C1.51563 4.49282 1.23054 4.49282 1.05611 4.31548L0.632229 3.88912C0.455924 3.71178 0.455924 3.42502 0.632229 3.24957L3.18303 0.683823C3.35558 0.506485 3.64067 0.506485 3.81697 0.683823Z" fill="#885ACB"/>
  <path d="M3.81697 0.683823L6.36777 3.24957C6.54408 3.42691 6.54408 3.71367 6.36777 3.88912L5.94389 4.31548C5.76758 4.49282 5.48249 4.49282 5.30806 4.31548L3.5 2.49682L1.69194 4.31548C1.51563 4.49282 1.23054 4.49282 1.05611 4.31548L0.632229 3.88912C0.455924 3.71178 0.455924 3.42502 0.632229 3.24957L3.18303 0.683823C3.35558 0.506485 3.64067 0.506485 3.81697 0.683823Z" fill="#6047B8" fill-opacity="0.49"/>
</svg>
