<svg width="16" height="18" viewBox="0 0 16 18" fill="none" xmlns="http://www.w3.org/2000/svg">
  <path d="M14.8438 1.5625C14.9987 1.5625 15.1204 1.61784 15.209 1.72852C15.3197 1.81706 15.375 1.9388 15.375 2.09375V3.15625C15.375 3.3112 15.3197 3.44401 15.209 3.55469C15.1204 3.64323 14.9987 3.6875 14.8438 3.6875H1.03125C0.876302 3.6875 0.74349 3.64323 0.632812 3.55469C0.544271 3.44401 0.5 3.3112 0.5 3.15625V2.09375C0.5 1.9388 0.544271 1.81706 0.632812 1.72852C0.74349 1.61784 0.876302 1.5625 1.03125 1.5625H5.01562L5.31445 0.931641C5.4694 0.64388 5.71289 0.5 6.04492 0.5H9.83008C10.1621 0.5 10.4056 0.64388 10.5605 0.931641L10.8594 1.5625H14.8438ZM2.25977 16.0059L1.5625 4.75H14.3125L13.6152 16.0059C13.5931 16.4264 13.4271 16.7806 13.1172 17.0684C12.8073 17.3561 12.4421 17.5 12.0215 17.5H3.85352C3.43294 17.5 3.06771 17.3561 2.75781 17.0684C2.44792 16.7806 2.2819 16.4264 2.25977 16.0059Z" fill="#313948"/>
</svg>
