<svg width="73" height="66" viewBox="0 0 73 66" fill="red" xmlns="http://www.w3.org/2000/svg">
<path d="M63.4633 41.655L65.9651 29.2855L66.0513 28.8595C66.2743 27.7702 67.2401 26.9803 68.352 26.9775H69.1772C70.907 26.9759 72.3298 25.5531 72.3313 23.8233V21.6341C72.3298 19.9044 70.9069 18.4816 69.1772 18.48H60.5778C60.5778 18.48 61.8706 20.547 61.7819 20.2468H69.1776C69.9381 20.2481 70.5634 20.8735 70.5642 21.6341V23.8234C70.5634 24.5841 69.9378 25.2097 69.1771 25.2107H3.15408C2.3934 25.2097 1.7678 24.5841 1.76701 23.8234V21.6341C1.76796 20.8735 2.39356 20.2479 3.15408 20.247H11.6361C12.1208 20.247 12.5196 19.8482 12.5196 19.3635C12.5196 18.8788 12.1208 18.48 11.6361 18.48H3.15408C1.42445 18.4816 0.00157068 19.9044 0 21.6341V23.8234C0.00157068 25.5531 1.42445 26.9759 3.15408 26.9775H3.97947C5.0912 26.9802 6.05701 27.7701 6.2802 28.8592L11.1912 53.1403C11.8011 56.1171 14.4403 58.276 17.4788 58.2837H48.7049C49.1896 58.2837 49.5884 57.8849 49.5884 57.4002C49.5884 56.9154 49.1896 56.5166 48.7049 56.5166H17.4788C15.2775 56.5108 13.3655 54.9466 12.9239 52.79L8.19407 29.4089V29.4072L8.0125 28.5096V28.5066L7.70324 26.9778H64.6295L64.3202 28.507V28.5096L64.1385 29.4072V29.4086L61.7314 41.3048" fill="#DEE0E7"/>
<path d="M33.1317 34.0406V49.4534C33.1317 51.1235 34.5059 52.4977 36.176 52.4977C37.8461 52.4977 39.2203 51.1235 39.2203 49.4534V34.0406C39.2203 32.3705 37.8461 30.9963 36.176 30.9963C34.5059 30.9963 33.1317 32.3705 33.1317 34.0406ZM37.4533 34.0406V49.4534C37.4533 50.1541 36.8767 50.7307 36.176 50.7307C35.4753 50.7307 34.8987 50.1541 34.8987 49.4534V34.0406C34.8987 33.3399 35.4753 32.7634 36.176 32.7634C36.8767 32.7634 37.4533 33.3399 37.4533 34.0406Z" fill="#DEE0E7"/>
<path d="M20.5933 31.0979C18.9398 31.3275 17.767 32.8748 17.9925 34.5287L20.095 49.797C20.3013 51.2945 21.5928 52.423 23.1045 52.4266C23.2455 52.4266 23.3864 52.4169 23.526 52.3975C25.1804 52.1696 26.3542 50.6209 26.1266 48.9666L24.0244 33.698C23.7949 32.0445 22.2472 30.8717 20.5933 31.0979ZM24.1285 50.1537C23.8873 50.472 23.5102 50.6593 23.1107 50.6593C22.4757 50.6593 21.9323 50.1859 21.8454 49.5568L19.7432 34.2878C19.7339 34.2257 19.7294 34.1629 19.7294 34.1002C19.7294 33.3994 20.306 32.823 21.0067 32.823C21.6469 32.823 22.193 33.3042 22.2737 33.9392L24.3759 49.208C24.4232 49.5435 24.334 49.8843 24.1285 50.1537Z" fill="#DEE0E7"/>
<path d="M48.6846 52.3763C47.1004 52.0865 45.9945 50.5765 46.2161 48.9665L48.3183 33.698C48.5478 32.0445 50.0955 30.8717 51.7494 31.0979C53.4027 31.3275 54.5757 32.8748 54.3502 34.5287L53.0044 44.3008L50.9947 45.9439L52.5995 34.2878C52.6086 34.2257 52.6133 34.1629 52.6133 34.1002C52.6133 33.3994 52.0367 32.823 51.336 32.823C50.6958 32.823 50.1496 33.3042 50.069 33.9392L47.9668 49.208C47.9195 49.5435 48.0087 49.8843 48.2142 50.1537C48.4246 50.4314 48.7386 50.6095 49.0806 50.6503L48.6846 52.3763Z" fill="#DEE0E7"/>
<path d="M13.6708 24.4255C14.5369 24.428 15.3689 24.0834 15.9797 23.4692L19.2194 20.2294C19.2425 20.2313 19.2647 20.2365 19.2881 20.2365H53.5226C54.0071 20.2365 53.6208 19.8377 53.6208 19.353C53.6208 18.8682 53.2218 18.4695 52.7372 18.4695H20.9792L33.8745 5.57418C34.4866 4.96209 34.8309 4.13089 34.8309 3.26528C34.8309 1.47408 33.3568 0 31.5656 0C30.7 0 29.8688 0.344293 29.2567 0.956386L11.3619 18.8514C10.7499 19.4635 10.4056 20.2946 10.4056 21.1603C10.4056 22.9515 11.8795 24.4255 13.6707 24.4255H13.6708ZM12.6117 20.1011L30.506 2.20618C30.7868 1.92534 31.1682 1.76733 31.5654 1.76733C32.3872 1.76733 33.0636 2.44366 33.0636 3.26544C33.0636 3.66251 32.9057 4.04387 32.6249 4.32471L14.7301 22.2196C14.4493 22.5004 14.0679 22.6585 13.6707 22.6585C12.8489 22.6585 12.1726 21.9821 12.1726 21.1603C12.1726 20.7633 12.3304 20.3819 12.6113 20.1011H12.6117Z" fill="#DEE0E7"/>
<path d="M58.7274 24.4255C57.8613 24.428 57.0293 24.0834 56.4185 23.4692L53.1788 20.2294C53.1557 20.2313 53.1336 20.2365 53.1102 20.2365H18.8757C18.3911 20.2365 18.7775 19.8377 18.7775 19.353C18.7775 18.8682 19.1764 18.4695 19.661 18.4695H51.419L38.5237 5.57418C37.9117 4.96209 37.5674 4.13089 37.5674 3.26528C37.5674 1.47408 39.0414 0 40.8326 0C41.6982 0 42.5295 0.344293 43.1415 0.956386L61.0363 18.8514C61.6484 19.4635 61.9927 20.2946 61.9927 21.1603C61.9927 22.9515 60.5188 24.4255 58.7275 24.4255H58.7274ZM59.7865 20.1011L41.8922 2.20618C41.6114 1.92534 41.23 1.76733 40.8328 1.76733C40.011 1.76733 39.3347 2.44366 39.3347 3.26544C39.3347 3.66251 39.4925 4.04387 39.7734 4.32471L57.6681 22.2196C57.949 22.5004 58.3303 22.6585 58.7275 22.6585C59.5493 22.6585 60.2257 21.9821 60.2257 21.1603C60.2257 20.7633 60.0678 20.3819 59.787 20.1011H59.7865Z" fill="#DEE0E7"/>
<path d="M63.1273 50.1259C62.7846 49.7834 62.2207 49.7834 61.878 50.1259L60.1371 51.8669L58.396 50.1259C58.2309 49.9643 58.009 49.8738 57.7779 49.8738C57.2934 49.8738 56.8944 50.2726 56.8944 50.7574C56.8944 50.9884 56.985 51.2103 57.1467 51.3754L58.8874 53.1164L57.1467 54.8571C56.981 55.0228 56.8878 55.2476 56.8878 55.482C56.8878 55.9667 57.2866 56.3655 57.7713 56.3655C58.0055 56.3655 58.2304 56.2723 58.396 56.1068L60.1368 54.3658L61.8777 56.1068C62.0433 56.2723 62.2682 56.3655 62.5024 56.3655C62.9871 56.3655 63.3859 55.9667 63.3859 55.482C63.3859 55.2476 63.2927 55.0228 63.127 54.8571L61.3866 53.1164L63.1273 51.3757C63.293 51.21 63.3863 50.9851 63.3863 50.7509C63.3863 50.5166 63.293 50.2916 63.1273 50.1259Z" fill="#DEE0E7"/>
<path fill-rule="evenodd" clip-rule="evenodd" d="M60.1336 40.6168C67.0178 40.6168 72.6069 46.2059 72.6069 53.0901C72.6069 59.9742 67.0178 65.5633 60.1336 65.5633C53.2494 65.5633 47.6603 59.9742 47.6603 53.0901C47.6603 46.2059 53.2494 40.6168 60.1336 40.6168ZM60.1336 42.3452C66.0638 42.3452 70.8784 47.1598 70.8784 53.0901C70.8784 59.0203 66.0638 63.8349 60.1336 63.8349C54.2033 63.8349 49.3887 59.0203 49.3887 53.0901C49.3887 47.1598 54.2033 42.3452 60.1336 42.3452Z" fill="#DEE0E7"/>
</svg>
