<svg width="14" height="15" viewBox="0 0 14 15" fill="none" xmlns="http://www.w3.org/2000/svg">
<path d="M7 0.71875C3.25508 0.71875 0.21875 3.75618 0.21875 7.5C0.21875 11.246 3.25508 14.2812 7 14.2812C10.7449 14.2812 13.7812 11.246 13.7812 7.5C13.7812 3.75618 10.7449 0.71875 7 0.71875ZM7 3.72656C7.63427 3.72656 8.14844 4.24073 8.14844 4.875C8.14844 5.50927 7.63427 6.02344 7 6.02344C6.36573 6.02344 5.85156 5.50927 5.85156 4.875C5.85156 4.24073 6.36573 3.72656 7 3.72656ZM8.53125 10.6719C8.53125 10.8531 8.38433 11 8.20312 11H5.79688C5.61567 11 5.46875 10.8531 5.46875 10.6719V10.0156C5.46875 9.83442 5.61567 9.6875 5.79688 9.6875H6.125V7.9375H5.79688C5.61567 7.9375 5.46875 7.79058 5.46875 7.60938V6.95312C5.46875 6.77192 5.61567 6.625 5.79688 6.625H7.54688C7.72808 6.625 7.875 6.77192 7.875 6.95312V9.6875H8.20312C8.38433 9.6875 8.53125 9.83442 8.53125 10.0156V10.6719Z" fill="#6C6E80" fill-opacity="0.5"/>
</svg>
