<svg width="9" height="10" viewBox="0 0 9 10" fill="none" xmlns="http://www.w3.org/2000/svg">
<path d="M8.25 4.3125C8.41927 4.3125 8.5625 4.3776 8.67969 4.50781C8.8099 4.625 8.875 4.76823 8.875 4.9375V5.5625C8.875 5.73177 8.8099 5.88151 8.67969 6.01172C8.5625 6.12891 8.41927 6.1875 8.25 6.1875H5.4375V9C5.4375 9.16927 5.3724 9.3125 5.24219 9.42969C5.125 9.5599 4.98177 9.625 4.8125 9.625H4.1875C4.01823 9.625 3.86849 9.5599 3.73828 9.42969C3.62109 9.3125 3.5625 9.16927 3.5625 9V6.1875H0.75C0.580729 6.1875 0.43099 6.12891 0.300781 6.01172C0.183594 5.88151 0.125 5.73177 0.125 5.5625V4.9375C0.125 4.76823 0.183594 4.625 0.300781 4.50781C0.43099 4.3776 0.580729 4.3125 0.75 4.3125H3.5625V1.5C3.5625 1.33073 3.62109 1.1875 3.73828 1.07031C3.86849 0.940104 4.01823 0.875 4.1875 0.875H4.8125C4.98177 0.875 5.125 0.940104 5.24219 1.07031C5.3724 1.1875 5.4375 1.33073 5.4375 1.5V4.3125H8.25Z" fill="#6C6E80" fill-opacity="0.5"/>
</svg>
