<svg width="235" height="214" viewBox="0 0 235 214" fill="none" xmlns="http://www.w3.org/2000/svg">
  <path d="M117.051 56.7469L191.994 85.8013L117.337 114.149L42.3936 85.095L117.051 56.7469Z" fill="#C1C9D4" fill-opacity="0.1" stroke="#C1C9D4" stroke-width="2"/>
  <path d="M117.781 212.532L117.781 114.002L189.851 86.9304V182.809C189.851 183.631 189.348 184.37 188.583 184.67L117.781 212.532Z" fill="url(#paint0_linear)" fill-opacity="0.2" stroke="#C1C9D4" stroke-width="2"/>
  <path d="M118.073 212.532L118.073 114.002L46.0036 86.9304V182.809C46.0036 183.631 46.5064 184.37 47.2712 184.67L118.073 212.532Z" stroke="#C1C9D4" stroke-width="2"/>
  <path d="M96.4118 138.823L117.417 113.106L45.0945 85.94L16.247 102.611C14.8278 103.431 14.9436 105.516 16.4449 106.174L92.8842 139.673C94.1176 140.213 95.5599 139.866 96.4118 138.823Z" fill="#F1F3F5" stroke="#C1C9D4" stroke-width="2"/>
  <path d="M6.1072 65.4847L43.7143 86.0321L116.667 56.9246L91.7762 30.1919C90.9363 29.2899 89.6311 28.9942 88.4854 29.4463L6.33165 61.865C4.75406 62.4876 4.61865 64.6714 6.1072 65.4847Z" fill="#F1F3F5" stroke="#C1C9D4" stroke-width="2"/>
  <path d="M228.936 64.5115L191.277 85.087L117.545 57.0306L148.804 30.5358C149.651 29.8178 150.825 29.6273 151.855 30.0408L228.722 60.8962C230.291 61.526 230.419 63.7008 228.936 64.5115Z" fill="#F1F3F5" stroke="#C1C9D4" stroke-width="2"/>
  <path d="M138.459 138.843L117.445 113.116L191.755 85.9374L220.553 102.579C221.979 103.403 221.853 105.501 220.339 106.149L141.964 139.703C140.734 140.23 139.305 139.879 138.459 138.843Z" fill="#F1F3F5" stroke="#C1C9D4" stroke-width="2"/>
  <path fill-rule="evenodd" clip-rule="evenodd" d="M185.293 14.1924C184.902 14.5829 184.902 15.2161 185.293 15.6066C185.683 15.9971 186.317 15.9971 186.707 15.6066L191.242 11.0714L195.778 15.6073C196.169 15.9978 196.802 15.9978 197.192 15.6073C197.583 15.2168 197.583 14.5836 197.192 14.1931L192.656 9.65721L196.607 5.70711C196.997 5.31658 196.997 4.68342 196.607 4.29289C196.216 3.90237 195.583 3.90237 195.192 4.29289L191.242 8.243L187.293 4.29361C186.902 3.90309 186.269 3.90309 185.879 4.29361C185.488 4.68414 185.488 5.3173 185.879 5.70783L189.828 9.65721L185.293 14.1924Z" fill="#C1C9D4"/>
  <path fill-rule="evenodd" clip-rule="evenodd" d="M127.936 197.586C127.749 197.971 127.861 198.508 128.185 198.787C128.51 199.065 128.924 198.979 129.111 198.594L130.887 194.935L133.059 196.798C133.46 197.141 133.971 197.035 134.201 196.561C134.431 196.086 134.294 195.423 133.893 195.08L131.722 193.217L133.439 189.679C133.626 189.295 133.514 188.757 133.189 188.479C132.865 188.2 132.45 188.286 132.264 188.671L130.546 192.209L128.291 190.274C127.891 189.931 127.38 190.037 127.149 190.512C126.919 190.986 127.057 191.649 127.457 191.992L129.712 193.927L127.936 197.586Z" fill="#C1C9D4"/>
  <path fill-rule="evenodd" clip-rule="evenodd" d="M139.412 193.402C139.225 193.787 139.337 194.325 139.662 194.603C139.986 194.881 140.401 194.795 140.588 194.411L142.364 190.751L144.536 192.614C144.936 192.958 145.447 192.852 145.678 192.377C145.908 191.903 145.77 191.24 145.37 190.896L143.198 189.033L144.916 185.496C145.102 185.111 144.991 184.573 144.666 184.295C144.342 184.017 143.927 184.103 143.74 184.487L142.023 188.025L139.768 186.091C139.367 185.747 138.856 185.854 138.626 186.328C138.395 186.802 138.533 187.465 138.934 187.809L141.189 189.743L139.412 193.402Z" fill="#C1C9D4"/>
  <circle cx="211" cy="36" r="3" stroke="#C1C9D4" stroke-width="2"/>
  <circle cx="23" cy="32" r="6" stroke="#C1C9D4" stroke-width="2"/>
  <defs>
    <linearGradient id="paint0_linear" x1="154" y1="102" x2="154" y2="199" gradientUnits="userSpaceOnUse">
      <stop stop-color="#C1C9D4"/>
      <stop offset="1" stop-color="#C1C9D4" stop-opacity="0"/>
    </linearGradient>
  </defs>
</svg>
