<svg width="28" height="27" viewBox="0 0 28 27" fill="none" xmlns="http://www.w3.org/2000/svg">
  <path d="M25.6725 15.4321L27.9705 4.77936C28.1364 4.01021 27.5815 3.27778 26.8328 3.27778H7.73928L7.29371 0.982821C7.18268 0.410798 6.70493 0 6.15072 0H1.16667C0.522326 0 0 0.550308 0 1.22917V2.04861C0 2.72747 0.522326 3.27778 1.16667 3.27778H4.56376L7.97859 20.8669C7.16163 21.3619 6.61111 22.29 6.61111 23.3542C6.61111 24.9382 7.82989 26.2222 9.33333 26.2222C10.8368 26.2222 12.0556 24.9382 12.0556 23.3542C12.0556 22.5514 11.7422 21.8262 11.2377 21.3056H21.4289C20.9245 21.8262 20.6111 22.5514 20.6111 23.3542C20.6111 24.9382 21.8299 26.2222 23.3333 26.2222C24.8368 26.2222 26.0556 24.9382 26.0556 23.3542C26.0556 22.2186 25.4291 21.2373 24.5205 20.7727L24.7887 19.5294C24.9546 18.7602 24.3997 18.0278 23.651 18.0278H10.6029L10.2848 16.3889H24.5349C25.0796 16.3889 25.5518 15.9918 25.6725 15.4321Z" fill="#1AB791"/>
</svg>
