<svg width="32" height="32" viewBox="0 0 32 32" fill="none" xmlns="http://www.w3.org/2000/svg">
  <path d="M27.6725 18.4321L29.9705 7.77936C30.1364 7.01021 29.5815 6.27778 28.8328 6.27778H9.73928L9.29371 3.98282C9.18268 3.4108 8.70493 3 8.15072 3H3.16667C2.52233 3 2 3.55031 2 4.22917V5.04861C2 5.72747 2.52233 6.27778 3.16667 6.27778H6.56376L9.97859 23.8669C9.16163 24.3619 8.61111 25.29 8.61111 26.3542C8.61111 27.9382 9.82989 29.2222 11.3333 29.2222C12.8368 29.2222 14.0556 27.9382 14.0556 26.3542C14.0556 25.5514 13.7422 24.8262 13.2377 24.3056H23.4289C22.9245 24.8262 22.6111 25.5514 22.6111 26.3542C22.6111 27.9382 23.8299 29.2222 25.3333 29.2222C26.8368 29.2222 28.0556 27.9382 28.0556 26.3542C28.0556 25.2186 27.4291 24.2373 26.5205 23.7727L26.7887 22.5294C26.9546 21.7602 26.3997 21.0278 25.651 21.0278H12.6029L12.2848 19.3889H26.5349C27.0796 19.3889 27.5518 18.9918 27.6725 18.4321Z" fill="#6C6E80" fill-opacity="0.5"/>
</svg>
