<svg width="16"  height="14" viewBox="0 0 16 14" fill="none" xmlns="http://www.w3.org/2000/svg">
<path opacity="0.5"  d="M5 1.04011C3.65217 2.10875 2.7951 2.59246 1 3.04011C1.85946 3.10648 2.33705 3.13151 3 3.04011V13.0401H5V8.04011C7 7.5401 7.47147 9.2132 9.85008 11.6417C10.1429 11.9013 10.181 12.215 10 12.5C9.82054 12.7825 9.5756 12.8951 9 13.0401H15.5C15.5 13.0401 14 12.784 13 12.5401C10.383 11.7448 8.5 9.0401 7 7.04011C10.5843 1.51133 14.5 3.5401 13.5 1.54011C11.4033 -0.628799 9.19932 4.25095 5 7.04011V1.04011Z" fill="black" stroke="black" stroke-linejoin="round"/>
</svg>
