<svg width="18" height="18" viewBox="0 0 18 18" fill="none" xmlns="http://www.w3.org/2000/svg">
<g opacity="0.5">
<path fill-rule="evenodd" clip-rule="evenodd" d="M17 2.5C17 1.67156 16.3284 1 15.5 1H6.5C5.67156 1 5 1.67156 5 2.5V11.5C5 12.3284 5.67156 13 6.5 13H15.5C16.3284 13 17 12.3284 17 11.5V2.5ZM4 11.5C4 12.8785 5.1215 14 6.5 14H13V15.5C13 16.3284 12.3284 17 11.5 17H2.5C1.67156 17 1 16.3284 1 15.5V6.5C1 5.67156 1.67156 5 2.5 5H4V11.5ZM11.8891 6.20536H13.4891C13.7091 6.20536 13.8891 6.38584 13.8891 6.60643V7.40857C13.8891 7.62915 13.7091 7.80963 13.4891 7.80963H11.8891V9.41391C11.8891 9.6345 11.7091 9.81498 11.4891 9.81498H10.6891C10.4691 9.81498 10.2891 9.6345 10.2891 9.41391V7.80963H8.68906C8.46906 7.80963 8.28906 7.62915 8.28906 7.40857V6.60643C8.28906 6.38584 8.46906 6.20536 8.68906 6.20536H10.2891V4.60108C10.2891 4.38049 10.4691 4.20001 10.6891 4.20001H11.4891C11.7091 4.20001 11.8891 4.38049 11.8891 4.60108V6.20536Z" fill="#6C6E80"/>
</g>
</svg>
