<svg width="18" height="18" viewBox="0 0 18 18" fill="none" xmlns="http://www.w3.org/2000/svg">
  <path fill-rule="evenodd" clip-rule="evenodd" d="M18 1.6875C18 0.755508 17.2445 0 16.3125 0H6.1875C5.25551 0 4.5 0.755508 4.5 1.6875V11.8125C4.5 12.7445 5.25551 13.5 6.1875 13.5H16.3125C17.2445 13.5 18 12.7445 18 11.8125V1.6875ZM3.375 11.8125C3.375 13.3633 4.63669 14.625 6.1875 14.625H13.5V16.3125C13.5 17.2445 12.7445 18 11.8125 18H1.6875C0.755508 18 0 17.2445 0 16.3125V6.1875C0 5.25551 0.755508 4.5 1.6875 4.5H3.375V11.8125ZM12.2502 5.85603H14.0502C14.2977 5.85603 14.5002 6.05907 14.5002 6.30723V7.20964C14.5002 7.4578 14.2977 7.66084 14.0502 7.66084H12.2502V9.46565C12.2502 9.71381 12.0477 9.91685 11.8002 9.91685H10.9002C10.6527 9.91685 10.4502 9.71381 10.4502 9.46565V7.66084H8.6502C8.40269 7.66084 8.2002 7.4578 8.2002 7.20964V6.30723C8.2002 6.05907 8.40269 5.85603 8.6502 5.85603H10.4502V4.05121C10.4502 3.80305 10.6527 3.60001 10.9002 3.60001H11.8002C12.0477 3.60001 12.2502 3.80305 12.2502 4.05121V5.85603Z" fill="#6C6E80"/>
</svg>
