<svg width="18" height="18" viewBox="0 0 18 18" fill="none" xmlns="http://www.w3.org/2000/svg">
  <path d="M10.1658 3.58789L14.4158 7.83789L5.18533 17.0684L1.40017 17.5C1.13455 17.5221 0.913194 17.4447 0.736111 17.2676C0.559028 17.0905 0.481554 16.8691 0.503689 16.6035L0.93533 12.8184L10.1658 3.58789ZM17.0388 2.95703C17.3487 3.26693 17.5037 3.64323 17.5037 4.08594C17.5037 4.52865 17.3487 4.90495 17.0388 5.21484L15.1463 7.10742L10.8963 2.85742L12.7888 0.964844C13.0987 0.654948 13.475 0.5 13.9178 0.5C14.3605 0.5 14.7368 0.654948 15.0467 0.964844L17.0388 2.95703Z" fill="#313948"/>
</svg>
