<svg width="11" height="12" viewBox="0 0 11 12" fill="none" xmlns="http://www.w3.org/2000/svg">
<path d="M4.40051 4.39286C3.90051 4.89286 3.29337 5.14286 2.57908 5.14286C1.8648 5.14286 1.25765 4.89286 0.757653 4.39286C0.257653 3.89286 0.00765306 3.28571 0.00765306 2.57143C0.00765306 1.85714 0.257653 1.25 0.757653 0.75C1.25765 0.25 1.8648 0 2.57908 0C3.29337 0 3.90051 0.25 4.40051 0.75C4.90051 1.25 5.15051 1.85714 5.15051 2.57143C5.15051 3.28571 4.90051 3.89286 4.40051 4.39286ZM3.4898 1.66071C3.2398 1.41071 2.93622 1.28571 2.57908 1.28571C2.22194 1.28571 1.91837 1.41071 1.66837 1.66071C1.41837 1.91071 1.29337 2.21429 1.29337 2.57143C1.29337 2.92857 1.41837 3.23214 1.66837 3.48214C1.91837 3.73214 2.22194 3.85714 2.57908 3.85714C2.93622 3.85714 3.2398 3.73214 3.4898 3.48214C3.7398 3.23214 3.8648 2.92857 3.8648 2.57143C3.8648 2.21429 3.7398 1.91071 3.4898 1.66071ZM5.90051 7.60714C6.40051 7.10714 7.00765 6.85714 7.72194 6.85714C8.43622 6.85714 9.04337 7.10714 9.54337 7.60714C10.0434 8.10714 10.2934 8.71429 10.2934 9.42857C10.2934 10.1429 10.0434 10.75 9.54337 11.25C9.04337 11.75 8.43622 12 7.72194 12C7.00765 12 6.40051 11.75 5.90051 11.25C5.40051 10.75 5.15051 10.1429 5.15051 9.42857C5.15051 8.71429 5.40051 8.10714 5.90051 7.60714ZM6.81122 10.3393C7.06122 10.5893 7.3648 10.7143 7.72194 10.7143C8.07908 10.7143 8.38265 10.5893 8.63265 10.3393C8.88265 10.0893 9.00765 9.78571 9.00765 9.42857C9.00765 9.07143 8.88265 8.76786 8.63265 8.51786C8.38265 8.26786 8.07908 8.14286 7.72194 8.14286C7.3648 8.14286 7.06122 8.26786 6.81122 8.51786C6.56122 8.76786 6.43622 9.07143 6.43622 9.42857C6.43622 9.78571 6.56122 10.0893 6.81122 10.3393ZM10.2398 0.508929L1.53444 11.8661C1.46301 11.9554 1.38265 12 1.29337 12H0.329082C0.204082 12 0.105867 11.9375 0.0344388 11.8125C-0.0191327 11.7054 -0.0102041 11.5982 0.0612245 11.4911L8.76658 0.133929C8.83801 0.0446429 8.9273 0 9.03444 0H9.97194C10.0969 0 10.1862 0.0625 10.2398 0.1875C10.3112 0.294643 10.3112 0.401786 10.2398 0.508929Z" fill="#6C6E80"/>
</svg>
