<svg width="14" height="14" viewBox="0 0 14 14" fill="none" xmlns="http://www.w3.org/2000/svg">
<path d="M12.8984 12.5332C13.0508 12.6686 13.0508 12.8125 12.8984 12.9648L12.3398 13.5234C12.1875 13.6758 12.0436 13.6758 11.9082 13.5234L8.83594 10.4512C8.76823 10.3835 8.73438 10.3158 8.73438 10.248V9.89258C7.73568 10.7559 6.58464 11.1875 5.28125 11.1875C3.82552 11.1875 2.58138 10.6712 1.54883 9.63867C0.516276 8.60612 0 7.36198 0 5.90625C0 4.45052 0.516276 3.20638 1.54883 2.17383C2.58138 1.14128 3.82552 0.625 5.28125 0.625C6.73698 0.625 7.98112 1.14128 9.01367 2.17383C10.0462 3.20638 10.5625 4.45052 10.5625 5.90625C10.5625 7.20964 10.1309 8.36068 9.26758 9.35938H9.62305C9.70768 9.35938 9.77539 9.39323 9.82617 9.46094L12.8984 12.5332ZM2.41211 8.77539C3.20768 9.57096 4.16406 9.96875 5.28125 9.96875C6.39844 9.96875 7.35482 9.57096 8.15039 8.77539C8.94596 7.97982 9.34375 7.02344 9.34375 5.90625C9.34375 4.78906 8.94596 3.83268 8.15039 3.03711C7.35482 2.24154 6.39844 1.84375 5.28125 1.84375C4.16406 1.84375 3.20768 2.24154 2.41211 3.03711C1.61654 3.83268 1.21875 4.78906 1.21875 5.90625C1.21875 7.02344 1.61654 7.97982 2.41211 8.77539Z" fill="#6C6E80" fill-opacity="0.6"/>
</svg>
