<svg width="21" height="18" viewBox="0 0 21 18" fill="none" xmlns="http://www.w3.org/2000/svg">
<path d="M5.68987 11.3887L5.20455 12.2419C5.027 12.5581 4.64822 12.6893 4.31087 12.564C3.61249 12.3015 2.9733 11.9257 2.41104 11.4543C2.13879 11.2276 2.06777 10.8279 2.24533 10.5176L2.73064 9.66448C2.32227 9.18718 2.00267 8.63233 1.78961 8.02974H0.813062C0.457955 8.02974 0.150194 7.77319 0.0910097 7.41522C-0.0273593 6.69928 -0.0332778 5.94755 0.0910097 5.20177C0.150194 4.8438 0.457955 4.58129 0.813062 4.58129H1.78961C2.00267 3.9787 2.32227 3.42385 2.73064 2.94655L2.24533 2.09339C2.06777 1.78315 2.13288 1.38342 2.41104 1.1567C2.9733 0.685372 3.61841 0.309502 4.31087 0.0469905C4.64822 -0.0782993 5.027 0.0529578 5.20455 0.369165L5.68987 1.22233C6.3113 1.10897 6.94458 1.10897 7.56602 1.22233L8.05133 0.369165C8.22888 0.0529578 8.60766 -0.0782993 8.94501 0.0469905C9.64339 0.309502 10.2826 0.685372 10.8448 1.1567C11.1171 1.38342 11.1881 1.78315 11.0106 2.09339L10.5252 2.94655C10.9336 3.42385 11.2532 3.9787 11.4663 4.58129H12.4428C12.7979 4.58129 13.1057 4.83784 13.1649 5.19581C13.2832 5.91175 13.2892 6.66349 13.1649 7.40926C13.1057 7.76723 12.7979 8.02974 12.4428 8.02974H11.4663C11.2532 8.63233 10.9336 9.18718 10.5252 9.66448L11.0106 10.5176C11.1881 10.8279 11.123 11.2276 10.8448 11.4543C10.2826 11.9257 9.63747 12.3015 8.94501 12.564C8.60766 12.6893 8.22888 12.5581 8.05133 12.2419L7.56602 11.3887C6.9505 11.5021 6.3113 11.5021 5.68987 11.3887ZM5.06843 7.87462C7.34703 9.64061 9.94524 7.02146 8.19337 4.72448C5.91477 2.95849 3.31657 5.57764 5.06843 7.87462Z" fill="#6C6E80" fill-opacity="0.5"/>
<path d="M17.1945 14.0897H15.369V11.5123C15.369 11.2276 15.141 10.9968 14.8599 10.9968H13.8416C13.5605 10.9968 13.3325 11.2276 13.3325 11.5123V14.0897H11.507C11.0534 14.0897 10.8262 14.645 11.147 14.9697L13.9908 17.849C14.1896 18.0503 14.5119 18.0503 14.7108 17.849L17.5546 14.9697C17.8753 14.645 17.6481 14.0897 17.1945 14.0897Z" fill="#6C6E80" fill-opacity="0.5"/>
<path d="M14.5102 9.91031H16.3357V12.4877C16.3357 12.7724 16.5637 13.0032 16.8449 13.0032H17.8631C18.1442 13.0032 18.3722 12.7724 18.3722 12.4877V9.91031H20.1978C20.6513 9.91031 20.8785 9.35505 20.5577 9.03034L17.714 6.15101C17.5151 5.94972 17.1928 5.94972 16.9939 6.15101L14.1502 9.03034C13.8295 9.35505 14.0566 9.91031 14.5102 9.91031Z" fill="#6C6E80" fill-opacity="0.5"/>
</svg>
